<?xml version="1.0" encoding="iso-8859-1"?>
<!-- Uploaded to: SVG Repo, www.svgrepo.com, Generator: SVG Repo Mixer Tools -->
<svg height="800px" width="800px" version="1.1" id="Layer_1" xmlns="http://www.w3.org/2000/svg" xmlns:xlink="http://www.w3.org/1999/xlink" 
	 viewBox="0 0 512 512" xml:space="preserve">
<g transform="translate(1 1)">
	<g>
		<path style="fill:#00DA6C;" d="M425.667,442.842H84.333c-9.387,0-17.067-7.68-17.067-17.067s7.68-17.067,17.067-17.067h341.333
			c9.387,0,17.067,7.68,17.067,17.067S435.053,442.842,425.667,442.842"/>
		<path style="fill:#00DA6C;" d="M425.667,340.442H84.333c-9.387,0-17.067-7.68-17.067-17.067c0-9.387,7.68-17.067,17.067-17.067
			h341.333c9.387,0,17.067,7.68,17.067,17.067C442.733,332.762,435.053,340.442,425.667,340.442"/>
	</g>
	<path style="fill:#FFFFFF;" d="M92.867,323.375c0-9.387,7.68-17.067,17.067-17.067h-25.6c-9.387,0-17.067,7.68-17.067,17.067
		c0,9.387,7.68,17.067,17.067,17.067h25.6C100.547,340.442,92.867,332.762,92.867,323.375"/>
	<g>
		<path style="fill:#00AD55;" d="M417.133,323.375c0,9.387-7.68,17.067-17.067,17.067h25.6c9.387,0,17.067-7.68,17.067-17.067
			c0-9.387-7.68-17.067-17.067-17.067h-25.6C409.453,306.309,417.133,313.989,417.133,323.375"/>
		<path style="fill:#00AD55;" d="M417.133,425.775c0,9.387-7.68,17.067-17.067,17.067h25.6c9.387,0,17.067-7.68,17.067-17.067
			s-7.68-17.067-17.067-17.067h-25.6C409.453,408.709,417.133,416.389,417.133,425.775"/>
	</g>
	<path style="fill:#FFFFFF;" d="M92.867,425.775c0-9.387,7.68-17.067,17.067-17.067h-25.6c-9.387,0-17.067,7.68-17.067,17.067
		s7.68,17.067,17.067,17.067h25.6C100.547,442.842,92.867,435.162,92.867,425.775"/>
	<path style="fill:#00DA6C;" d="M255,220.975L255,220.975c-9.387,0-17.067-7.68-17.067-17.067v-68.267
		c0-9.387,7.68-17.067,17.067-17.067s17.067,7.68,17.067,17.067v68.267C272.067,213.295,264.387,220.975,255,220.975"/>
	<polygon style="fill:#FFE100;" points="92.867,408.709 417.133,408.709 417.133,340.442 92.867,340.442 	"/>
	<polygon style="fill:#FFA800;" points="391.533,408.709 417.133,408.709 417.133,340.442 391.533,340.442 	"/>
	<polygon style="fill:#FFFFFF;" points="92.867,408.709 118.467,408.709 118.467,340.442 92.867,340.442 	"/>
	<g>
		<path style="fill:#FFE100;" d="M169.667,179.162L169.667,179.162C70.68,174.895,7.533,67.375,7.533,67.375
			s-0.853,163.84,98.133,203.093C115.053,232.922,138.093,199.642,169.667,179.162"/>
		<path style="fill:#FFE100;" d="M340.333,178.309L340.333,178.309c31.573,21.333,54.613,54.613,64,92.16
			c98.987-39.253,98.133-203.093,98.133-203.093S439.32,174.895,340.333,178.309"/>
	</g>
	<path style="fill:#FFA800;" d="M483.693,94.682c-4.267,44.373-19.627,133.973-81.92,169.813c0.853,2.56,1.707,5.12,1.707,7.68
		c99.84-39.253,98.987-203.093,98.987-203.093S495.64,80.175,483.693,94.682"/>
	<path style="fill:#FFFFFF;" d="M28.013,92.975c4.267,44.373,19.627,133.973,81.92,169.813c-0.853,2.56-1.707,5.12-1.707,7.68
		C8.387,231.215,9.24,67.375,9.24,67.375S16.067,78.469,28.013,92.975"/>
	<path style="fill:#FFE100;" d="M272.067,153.562v50.347c0,9.387-7.68,17.067-17.067,17.067s-17.067-7.68-17.067-17.067v-50.347
		c-76.8,8.533-136.533,73.387-136.533,152.747h307.2C408.6,226.949,348.867,162.095,272.067,153.562"/>
	<path d="M425.667,348.975H84.333c-14.507,0-25.6-11.093-25.6-25.6c0-14.507,11.093-25.6,25.6-25.6h341.333
		c14.507,0,25.6,11.093,25.6,25.6C451.267,337.882,440.173,348.975,425.667,348.975z M84.333,314.842
		c-5.12,0-8.533,3.413-8.533,8.533c0,5.12,3.413,8.533,8.533,8.533h341.333c5.12,0,8.533-3.413,8.533-8.533
		c0-5.12-3.413-8.533-8.533-8.533H84.333z"/>
	<path d="M425.667,451.375H84.333c-14.507,0-25.6-11.093-25.6-25.6s11.093-25.6,25.6-25.6h341.333c14.507,0,25.6,11.093,25.6,25.6
		S440.173,451.375,425.667,451.375z M84.333,417.242c-5.12,0-8.533,3.413-8.533,8.533s3.413,8.533,8.533,8.533h341.333
		c5.12,0,8.533-3.413,8.533-8.533s-3.413-8.533-8.533-8.533H84.333z"/>
	<path d="M425.667,417.242H84.333v-85.333h341.333V417.242z M101.4,400.175h307.2v-51.2H101.4V400.175z"/>
	<path d="M220.867,383.109H152.6c-5.12,0-8.533-3.413-8.533-8.533s3.413-8.533,8.533-8.533h68.267c5.12,0,8.533,3.413,8.533,8.533
		S225.987,383.109,220.867,383.109z"/>
	<path d="M357.4,383.109h-68.267c-5.12,0-8.533-3.413-8.533-8.533s3.413-8.533,8.533-8.533H357.4c5.12,0,8.533,3.413,8.533,8.533
		S362.52,383.109,357.4,383.109z"/>
	<path d="M263.533,374.575c0,5.12-3.413,8.533-8.533,8.533s-8.533-3.413-8.533-8.533s3.413-8.533,8.533-8.533
		S263.533,369.455,263.533,374.575"/>
	<path d="M400.067,374.575c0,5.12-3.413,8.533-8.533,8.533S383,379.695,383,374.575s3.413-8.533,8.533-8.533
		S400.067,369.455,400.067,374.575"/>
	<path d="M109.933,374.575c0-5.12,3.413-8.533,8.533-8.533s8.533,3.413,8.533,8.533s-3.413,8.533-8.533,8.533
		S109.933,379.695,109.933,374.575"/>
	<path d="M105.667,279.002c-0.853,0-1.707,0-3.413-0.853C-1,237.189-1,74.202-1,67.375c0-3.413,2.56-6.827,5.973-8.533
		c3.413-0.853,7.68,0.853,9.387,4.267c0.853,0.853,63.147,103.253,155.307,106.667c3.413,0,5.973,1.707,6.827,4.267
		s0.853,5.973,0,8.533c-0.853,0.853-1.707,2.56-2.56,2.56c-29.867,20.48-51.2,51.2-59.733,86.187
		c-0.853,2.56-2.56,4.267-4.267,5.973C108.227,279.002,107.373,279.002,105.667,279.002z M17.773,97.242
		c5.12,45.227,21.333,130.56,81.92,161.28c8.533-29.013,25.6-54.613,47.787-74.24C86.893,173.189,41.667,127.109,17.773,97.242z"/>
	<path d="M404.333,279.002c-1.707,0-2.56,0-4.267-0.853c-2.56-0.853-3.413-3.413-4.267-5.973
		c-8.533-35.84-29.867-66.56-59.733-86.187c-0.853-0.853-1.707-1.707-2.56-2.56c-1.707-2.56-1.707-5.973-0.853-8.533
		c1.707-2.56,4.267-5.12,6.827-5.12c93.013-3.413,155.307-105.813,155.307-106.667c1.707-3.413,5.973-5.12,9.387-4.267
		c4.267,1.707,6.827,4.267,6.827,8.533c0,6.827,0,169.813-103.253,210.773C406.04,279.002,405.187,279.002,404.333,279.002z
		 M361.667,184.282c22.187,19.627,39.253,45.227,47.787,74.24c60.587-30.72,77.653-116.053,81.92-161.28
		C468.333,127.109,423.107,173.189,361.667,184.282z"/>
	<path d="M255,229.509c-14.507,0-25.6-11.093-25.6-25.6v-68.267c0-14.507,11.093-25.6,25.6-25.6c14.507,0,25.6,11.093,25.6,25.6
		v68.267C280.6,218.415,269.507,229.509,255,229.509z M255,127.109c-5.12,0-8.533,3.413-8.533,8.533v68.267
		c0,5.12,3.413,8.533,8.533,8.533s8.533-3.413,8.533-8.533v-68.267C263.533,130.522,260.12,127.109,255,127.109z"/>
	<path d="M408.6,314.842H101.4c-5.12,0-8.533-3.413-8.533-8.533c0-82.773,62.293-151.893,144.213-161.28
		c2.56,0,5.12,0.853,6.827,1.707c1.707,1.707,2.56,4.267,2.56,5.973v51.2c0,5.12,3.413,8.533,8.533,8.533
		c5.12,0,8.533-3.413,8.533-8.533v-50.347c0-2.56,0.853-5.12,2.56-5.973c1.707-1.707,4.267-2.56,6.827-1.707
		c81.92,8.533,144.213,77.653,144.213,160.427C417.133,311.429,413.72,314.842,408.6,314.842z M109.933,297.775h290.133
		C395.8,230.362,347.16,174.895,280.6,163.802v40.107c0,14.507-11.093,25.6-25.6,25.6c-14.507,0-25.6-11.093-25.6-25.6v-40.107
		C163.693,174.895,114.2,230.362,109.933,297.775z"/>
	<path d="M220.867,255.109h-34.133c-5.12,0-8.533-3.413-8.533-8.533s3.413-8.533,8.533-8.533h34.133c5.12,0,8.533,3.413,8.533,8.533
		S225.987,255.109,220.867,255.109z"/>
	<path d="M144.067,246.575c0-5.12,3.413-8.533,8.533-8.533c5.12,0,8.533,3.413,8.533,8.533s-3.413,8.533-8.533,8.533
		C147.48,255.109,144.067,251.695,144.067,246.575"/>
	<path d="M331.8,272.175h-34.133c-5.12,0-8.533-3.413-8.533-8.533c0-5.12,3.413-8.533,8.533-8.533H331.8
		c5.12,0,8.533,3.413,8.533,8.533C340.333,268.762,336.92,272.175,331.8,272.175z"/>
	<path d="M374.467,263.642c0,5.12-3.413,8.533-8.533,8.533s-8.533-3.413-8.533-8.533c0-5.12,3.413-8.533,8.533-8.533
		S374.467,258.522,374.467,263.642"/>
</g>
</svg>