<?xml version="1.0" encoding="iso-8859-1"?>
<!-- Uploaded to: SVG Repo, www.svgrepo.com, Generator: SVG Repo Mixer Tools -->
<svg fill="#000000" height="800px" width="800px" version="1.1" id="Layer_1" xmlns="http://www.w3.org/2000/svg" xmlns:xlink="http://www.w3.org/1999/xlink" 
	 viewBox="0 0 503.807 503.807" xml:space="preserve">
<g>
	<g>
		<g>
			<path d="M215.87,405.344c-1.57-1.57-3.71-2.459-5.934-2.459h-58.754c-1.754,0-3.458,0.546-4.877,1.561l-58.754,41.967
				c-2.207,1.578-3.517,4.121-3.517,6.832v41.967c0,4.633,3.752,8.385,8.385,8.393l151.082,0.201h0.008
				c2.224,0,4.356-0.881,5.934-2.451c1.57-1.578,2.459-3.71,2.459-5.943v-50.562c0-2.224-0.89-4.365-2.459-5.934L215.87,405.344z"/>
			<path d="M91.808,422.743l42.588-30.418v-20.698l-15.603-2.233c-2.635-0.378-5.254,0.504-7.118,2.375l-25.18,25.18
				c-2.426,2.426-3.131,6.085-1.779,9.241L91.808,422.743z"/>
			<path d="M342.573,388.271l37.175,6.203l5.775-13.463c1.351-3.156,0.646-6.815-1.779-9.241l-25.18-25.18
				c-1.872-1.872-4.499-2.753-7.126-2.375l-27.413,3.92l9.375,18.751L342.573,388.271z"/>
			<path d="M227.739,393.476l21.831,21.831l68.524-27.413c1.771-0.705,3.592-1.133,5.439-1.427l-5.363-12.515l-16.787-33.574
				c-1.67-3.341-5.405-5.179-9.015-4.507l-6.891,1.251V198.606c7.42,1.141,15.259-1.016,21.051-6.438
				c5.582-5.229,8.435-12.59,7.848-20.211c-0.604-7.764-4.675-14.756-11.172-19.179c-10.584-7.202-22.268-12.347-34.514-15.36
				V50.059c9.485-1.461,16.787-9.602,16.787-19.49V19.792C285.477,8.88,276.597,0,265.685,0h-44.351
				c-10.911,0-19.792,8.88-19.792,19.792v10.777c0,9.888,7.302,18.029,16.787,19.49v87.107
				c-13.043,3.064-25.474,8.553-36.721,16.308c-6.035,4.163-9.837,10.794-10.441,18.197c-0.621,7.63,2.182,15.058,7.722,20.388
				c4.86,4.684,11.197,7.084,17.526,7.084c1.721,0,3.433-0.243,5.128-0.604v153.818l-40.322-8.058
				c-2.468-0.504-5.019,0.134-6.967,1.737c-1.947,1.595-3.072,3.97-3.072,6.488v33.574h58.754
				C216.659,386.098,222.988,388.717,227.739,393.476z M235.116,50.361h16.787v83.934h-8.016h-0.814h-0.109h-7.848V50.361z
				 M218.33,190.422c3.324-1.586,6.79-2.778,10.324-3.718c1.259-0.319,2.535-0.63,3.827-0.873c1.049-0.201,2.098-0.394,3.173-0.546
				c2.484-0.336,5.003-0.579,7.571-0.613c0.076,0,0.151-0.017,0.227-0.017c0.101,0,0.193,0.017,0.285,0.017
				c2.417,0.034,4.793,0.252,7.143,0.571c1.234,0.176,2.459,0.428,3.676,0.68c1.032,0.21,2.048,0.445,3.055,0.705
				c1.654,0.445,3.299,0.923,4.902,1.519c0.185,0.067,0.369,0.151,0.554,0.218c1.914,0.73,3.794,1.544,5.624,2.484v149.328
				l-16.787,3.055v-116.61c0-4.633-3.76-8.393-8.393-8.393s-8.393,3.76-8.393,8.393V346.28l-16.787,3.055V190.422z"/>
			<path d="M419.051,491.803l-33.574-75.541c-1.15-2.577-3.508-4.406-6.295-4.868L328.822,403c-1.528-0.252-3.072-0.084-4.499,0.487
				l-61.994,24.794c4.054,4.6,6.362,10.383,6.362,16.569v50.57c0,2.904-0.579,5.699-1.519,8.36l144.216-0.176
				c2.845,0,5.481-1.444,7.034-3.819C419.966,497.401,420.201,494.396,419.051,491.803z"/>
		</g>
	</g>
</g>
</svg>