<?xml version="1.0" encoding="utf-8"?>
<!-- Uploaded to: SVG Repo, www.svgrepo.com, Generator: SVG Repo Mixer Tools -->
<svg width="800px" height="800px" viewBox="0 0 20.004 20.004" xmlns="http://www.w3.org/2000/svg">
  <g id="comet-2" transform="translate(-1.996 -1.996)">
    <path id="secondary" fill="#2ca9bc" d="M19.21,9.34S15.27,4,4.08,3A1,1,0,0,0,3,4.08C4,15.27,9.34,19.21,9.34,19.21A6.92,6.92,0,0,0,14,21a7,7,0,0,0,7-7,6.92,6.92,0,0,0-1.79-4.66ZM14,17a3,3,0,1,1,3-3,3,3,0,0,1-3,3Z"/>
    <path id="primary" d="M14,11a3,3,0,1,1-3,3,3,3,0,0,1,3-3ZM9.34,19.21A6.92,6.92,0,0,0,14,21a7,7,0,0,0,7-7,6.92,6.92,0,0,0-1.79-4.66S15.27,4,4.08,3A1,1,0,0,0,3,4.08C4,15.27,9.34,19.21,9.34,19.21Z" fill="none" stroke="#000000" stroke-linecap="round" stroke-linejoin="round" stroke-width="2"/>
  </g>
</svg>