<?xml version="1.0" encoding="utf-8"?><!-- Uploaded to: SVG Repo, www.svgrepo.com, Generator: SVG Repo Mixer Tools -->
<svg fill="#000000" width="800px" height="800px" viewBox="0 0 24 24" id="shooting-star" data-name="Flat Color" xmlns="http://www.w3.org/2000/svg" class="icon flat-color"><path id="secondary" d="M14.89,15.76a1,1,0,0,1-.7-.29,1,1,0,0,1,0-1.41l1.41-1.42a1,1,0,0,1,1.41,0,1,1,0,0,1,0,1.42L15.6,15.47A1,1,0,0,1,14.89,15.76ZM13,12a1,1,0,0,1-.7-.3,1,1,0,0,1,0-1.41l3.53-3.54a1,1,0,1,1,1.42,1.42l-3.54,3.53A1,1,0,0,1,13,12Zm6.37-.71a1,1,0,0,1-.71-.29,1,1,0,0,1,0-1.42L20,8.21a1,1,0,0,1,1.42,0,1,1,0,0,1,0,1.41L20,11A1,1,0,0,1,19.33,11.33ZM9.24,10.11a1,1,0,0,1-.71-.3,1,1,0,0,1,0-1.41L9.94,7A1,1,0,0,1,11.36,8.4L9.94,9.81A1,1,0,0,1,9.24,10.11Zm4.43-4.44A1,1,0,0,1,13,5.38,1,1,0,0,1,13,4l1.42-1.41A1,1,0,1,1,15.79,4L14.38,5.38A1,1,0,0,1,13.67,5.67Zm5.92-.26a1,1,0,0,1-.71-.29,1,1,0,0,1,0-1.41l1.41-1.42a1,1,0,1,1,1.42,1.42L20.29,5.12A1,1,0,0,1,19.59,5.41Z" style="fill: rgb(44, 169, 188);"></path><path id="primary" d="M12,15.74a1,1,0,0,0-.8-.67l-2.24-.34-1-2.15a1,1,0,0,0-1.82,0l-1,2.15-2.24.34a1,1,0,0,0-.57,1.68l1.65,1.69-.39,2.4a1,1,0,0,0,1.47,1l2-1.1,2,1.1a1,1,0,0,0,.48.12,1,1,0,0,0,1-1.16l-.39-2.4,1.65-1.69A1,1,0,0,0,12,15.74Z" style="fill: rgb(0, 0, 0);"></path></svg>