<?xml version="1.0" encoding="iso-8859-1"?>
<!-- Uploaded to: SVG Repo, www.svgrepo.com, Generator: SVG Repo Mixer Tools -->
<svg fill="#000000" height="800px" width="800px" version="1.1" id="Layer_1" xmlns="http://www.w3.org/2000/svg" xmlns:xlink="http://www.w3.org/1999/xlink" 
	 viewBox="0 0 503.607 503.607" xml:space="preserve">
<g transform="translate(1 1)">
	<g>
		<path d="M418.413,490.856l-33.574-75.541c-1.679-2.518-4.197-4.197-6.715-5.036l-6.854-1.142L384,379.223
			c1.679-3.357,0.839-6.715-1.679-9.233l-25.18-25.18c-1.679-1.679-4.197-2.518-6.715-2.518l-45.337,6.689l-5.023-10.047
			c-1.679-3.357-5.875-5.036-9.233-4.197l-6.715,1.243V197.874c7.399,1.198,15.332-1.013,20.984-6.665
			c5.036-5.036,8.393-12.59,7.554-20.144c0-7.554-4.197-15.108-10.911-19.305c-10.513-7.009-22.224-12.208-34.413-15.278V49.045
			c9.38-1.649,16.787-9.972,16.787-18.989V19.144C284.118,8.233,274.886-1,264.813-1h-44.485c-10.911,0-20.144,9.233-20.144,20.144
			v10.072c0,9.992,7.747,18.554,16.787,19.93v86.997c-13.014,3.085-25.459,8.635-36.931,16.457
			c-5.875,4.197-9.233,10.911-10.072,18.466c-0.839,7.554,1.679,15.108,7.554,20.144c5.036,4.197,10.911,6.715,17.626,6.715
			c1.771,0,3.436-0.108,5.036-0.388v153.988l-40.289-8.393c-2.518,0-5.036,0-6.715,1.679c-2.518,1.679-3.357,4.197-3.357,6.715
			v21.768l-32.734-4.981c-2.518,0-5.036,0.839-6.715,2.518l-25.18,25.18c-2.518,2.518-3.357,5.875-1.679,9.233l13.963,32.114
			l-11.445,8.175c-1.679,1.679-3.357,4.197-3.357,6.715v41.967c0,5.036,3.357,8.393,8.393,8.393h151.082H410.02
			c2.518,0,5.875-1.679,7.554-3.357C419.253,496.731,419.253,493.374,418.413,490.856z M347.909,360.757l18.466,18.466
			l-11.529,27.176l-25.273-4.212l-12.719-29.678l-3.413-6.827L347.909,360.757z M242.151,217.229c-5.036,0-8.393,3.357-8.393,8.393
			V345.09l-16.787,3.078V189.531c3.91-2.172,8.048-3.665,12.408-4.605c3.304-0.682,6.718-1.094,10.27-1.223
			c0.099-0.003,0.198-0.008,0.298-0.011c0.73-0.023,1.464-0.037,2.205-0.037c0.674,0,1.344,0.014,2.012,0.036
			c0.133,0.004,0.266,0.01,0.398,0.015c8.124,0.322,15.807,2.287,22.77,5.885v149.343l-16.787,3.078V225.623
			C250.545,220.587,247.187,217.229,242.151,217.229z M216.971,19.144c0-1.679,1.679-3.357,3.357-3.357h43.646
			c1.679,0,3.357,1.679,3.357,3.357v10.072c0,1.679-1.679,3.357-2.518,3.357h-5.875h-33.574h-5.036
			c-1.679,0-3.357-1.679-3.357-2.518V19.144z M233.758,133.295V49.361h16.787v83.934h-8.393h-0.839H233.758z M188.433,178.62
			c-1.679-1.679-2.518-4.197-2.518-6.715c0-1.679,0.839-4.197,3.357-5.875c15.108-10.072,33.574-15.948,52.039-15.948h14.031
			c12.71,2.329,24.543,6.971,35.49,14.269c2.518,1.679,4.197,4.197,4.197,6.715c0,1.679,0,4.197-2.518,6.715
			c-2.518,2.518-6.715,3.357-10.072,0.839c-11.751-8.393-26.02-12.59-41.128-12.59c-15.948,0-30.216,5.036-42.807,13.43
			C195.987,181.977,190.951,181.138,188.433,178.62z M166.61,361.597l31.895,6.715c1.679,0,2.518,0,3.357,0l12.233-2.399
			l63.308-11.87c1.068-0.214,2.026-0.592,2.863-1.105l7.209-1.413l13.43,27.698l11.751,26.859L243.83,433.78l-29.377-29.377
			c-1.679-1.679-3.357-2.518-5.875-2.518H166.61V361.597z M119.607,385.098l27.698,4.197l1.679,12.59
			c-1.679,0-2.518,0.839-4.197,0.839l-33.574,24.341l-10.072-23.502L119.607,385.098z M99.463,456.443l52.879-37.771h2.518h3.357
			h47.003l28.538,28.538v38.61H99.463V456.443z M250.545,485.82v-36.092l76.38-31.056l31.056,5.875c0.839,0,0.839,0,1.679,0
			c0.288,0,0.575-0.025,0.861-0.061l10.051,1.74l26.859,59.593H250.545z"/>
	</g>
</g>
</svg>