<?xml version="1.0" encoding="iso-8859-1"?>
<!-- Uploaded to: SVG Repo, www.svgrepo.com, Generator: SVG Repo Mixer Tools -->
<svg fill="#000000" height="800px" width="800px" version="1.1" id="Layer_1" xmlns="http://www.w3.org/2000/svg" xmlns:xlink="http://www.w3.org/1999/xlink" 
	 viewBox="0 0 480.055 480.055" xml:space="preserve">
<g transform="translate(0 -540.36)">
	<g>
		<g>
			<path d="M135.503,770.815c-69.2,0-125.5,55.8-125.5,124.4c0,69,56.3,125.2,125.5,125.2s125.5-56.2,125.5-125.2
				C261.003,826.615,204.703,770.815,135.503,770.815z M135.503,1000.415c-58.2,0-105.5-47.2-105.5-105.2
				c0-57.6,47.3-104.4,105.5-104.4c58.2,0,105.5,46.8,105.5,104.4C241.003,953.215,193.703,1000.415,135.503,1000.415z"/>
			<path d="M188.103,853.815c-17.2,0-31.2,14-31.2,31.2s14,31.2,31.2,31.2c16.8,0,30.5-14,30.4-31.2
				C218.503,867.815,204.903,853.815,188.103,853.815z M188.103,896.315c-6.3,0-11.2-4.9-11.2-11.2s4.9-11.2,11.2-11.2
				c5.7,0,10.5,5.1,10.4,11.2C198.503,891.215,193.803,896.315,188.103,896.315z"/>
			<path d="M119.803,927.515c-14.2,0-25.7,11.5-25.7,25.7s11.5,25.7,25.7,25.7c14.2,0,25.7-11.5,25.7-25.7
				S134.003,927.515,119.803,927.515z M119.803,958.915c-3.1,0-5.7-2.6-5.7-5.7c0-3.1,2.6-5.7,5.7-5.7c3.1,0,5.7,2.6,5.7,5.7
				C125.503,956.315,122.903,958.915,119.803,958.915z"/>
			<path d="M124.303,848.215c0-14.2-11.5-25.7-25.7-25.7s-25.7,11.5-25.7,25.7s11.5,25.7,25.7,25.7S124.303,862.315,124.303,848.215
				z M92.903,848.215c0-3.1,2.6-5.7,5.7-5.7c3.1,0,5.7,2.6,5.7,5.7c0,3.1-2.6,5.7-5.7,5.7
				C95.503,853.915,92.903,851.315,92.903,848.215z"/>
			<path d="M233.603,736.015c1.9,1.5,4.2,2.3,6.4,2.3c2.9,0,5.7-1.3,7.7-3.6l146.9-177.9c3.6-4.3,3-10.6-1.3-14.1
				c-4.3-3.6-10.6-3-14.1,1.3l-146.9,177.9C228.703,726.215,229.303,732.515,233.603,736.015z"/>
			<path d="M393.203,616.315c-4.3-3.5-10.6-2.8-14.1,1.5l-125.7,156.7c-3.5,4.3-2.8,10.6,1.5,14.1c1.9,1.5,4.1,2.2,6.3,2.2l0,0
				c2.9,0,5.8-1.3,7.8-3.8l125.7-156.6C398.203,626.115,397.503,619.815,393.203,616.315z"/>
			<path d="M172.403,728.115c14.2,0,25.7-11.5,25.7-25.7s-11.5-25.7-25.7-25.7s-25.7,11.5-25.7,25.7
				S158.203,728.115,172.403,728.115z M172.403,696.815c3.1,0,5.7,2.6,5.7,5.7c0,3.1-2.6,5.7-5.7,5.7c-3.1,0-5.7-2.6-5.7-5.7
				C166.703,699.415,169.303,696.815,172.403,696.815z"/>
			<path d="M213.103,663.015c1.9,1.6,4.2,2.4,6.5,2.4c2.8,0,5.6-1.2,7.6-3.5l62.9-73.7c3.6-4.2,3.1-10.5-1.1-14.1
				c-4.2-3.6-10.5-3.1-14.1,1.1l-62.9,73.7C208.403,653.115,208.903,659.415,213.103,663.015z"/>
			<path d="M331.803,787.115l136-167.7c3.4-4.3,2.8-10.6-1.5-14.1c-4.3-3.4-10.6-2.8-14.1,1.5l-135.9,167.7
				c-3.4,4.3-2.8,10.6,1.5,14.1c1.9,1.5,4.1,2.2,6.3,2.2C327.003,790.815,329.903,789.515,331.803,787.115z"/>
			<path d="M350.003,812.315c-14.2,0-25.7,11.5-25.7,25.7s11.5,25.7,25.7,25.7s25.7-11.5,25.7-25.7S364.203,812.315,350.003,812.315
				z M350.003,843.715c-3.1,0-5.7-2.6-5.7-5.7c0-3.1,2.6-5.7,5.7-5.7c3.1,0,5.7,2.6,5.7,5.7
				C355.703,841.115,353.103,843.715,350.003,843.715z"/>
			<path d="M466.603,710.615c-4.2-3.6-10.5-3.2-14.1,1l-62.9,72.9c-3.6,4.2-3.2,10.5,1,14.1c1.9,1.6,4.2,2.4,6.5,2.4
				c2.8,0,5.6-1.2,7.6-3.4l62.9-72.9C471.203,720.515,470.803,714.215,466.603,710.615z"/>
		</g>
	</g>
</g>
</svg>