<?xml version="1.0" encoding="iso-8859-1"?>
<!-- Uploaded to: SVG Repo, www.svgrepo.com, Generator: SVG Repo Mixer Tools -->
<svg height="800px" width="800px" version="1.1" id="Capa_1" xmlns="http://www.w3.org/2000/svg" xmlns:xlink="http://www.w3.org/1999/xlink" 
	 viewBox="0 0 197.442 197.442" xml:space="preserve">
<g>
	<g>
		<path style="fill:#010002;" d="M104.835,67.295H92.681v36.44h12.154V67.295z M95.444,100.976V70.051h6.632v30.925H95.444z"/>
		<path style="fill:#010002;" d="M104.835,103.993H92.681v30.549h12.154V103.993z M95.444,131.793v-25.034h6.632v25.034H95.444z"/>
		<path style="fill:#010002;" d="M197.373,47.747c-0.462-7.312-3.092-12.168-7.236-13.317l-1.793-0.49l0.054,1.857
			c0.379,15.64-37.735,40.044-43.483,43.63c-10.643-8.221-23.291-13.456-36.59-15.139l-1.553-0.197v76.358h0.018l-0.018,4.28h70.124
			v16.019H20.617v-16.019h70.142v-2.43l-0.047-0.233c-0.029-0.1-0.054-0.172-0.054-0.24v-1.378h0.1V64.081l-1.546,0.204
			c-13.328,1.689-25.986,6.936-36.63,15.171c-5.755-3.593-43.913-27.99-43.53-43.662l0.039-1.857l-1.789,0.49
			c-4.144,1.149-6.782,6.012-7.236,13.331C-0.91,63.706,8.696,90.919,33.1,101.917c-6.41,11.288-9.799,24.121-9.799,37.148v1.381
			h64.702v1.517H17.861v21.541h161.796v-21.541h-70.131v-1.517h64.695v-1.381c0-13.027-3.386-25.872-9.813-37.174
			C188.776,90.887,198.364,63.681,197.373,47.747z M36.264,101.974l0.812-1.371l-1.467-0.612
			C11.401,89.956,1.864,63.509,2.823,47.93c0.301-4.806,1.6-8.378,3.6-9.999C8.971,55.141,44.71,77.867,51.957,82.312l0.823,0.497
			l0.752-0.598C63.52,74.281,75.424,69.102,88,67.227v70.46H26.071C26.315,125.101,29.829,112.757,36.264,101.974z M161.903,99.977
			l-1.471,0.601l0.812,1.378c6.446,10.794,9.96,23.137,10.203,35.735h-61.921v-70.46c12.565,1.875,24.458,7.04,34.429,14.956
			l0.755,0.598l0.827-0.505c7.233-4.434,42.932-27.156,45.473-44.349c2.011,1.621,3.307,5.193,3.611,9.989
			C195.583,63.484,186.071,89.924,161.903,99.977z"/>
	</g>
</g>
</svg>