<?xml version="1.0" encoding="iso-8859-1"?>
<!-- Uploaded to: SVG Repo, www.svgrepo.com, Generator: SVG Repo Mixer Tools -->
<svg fill="#000000" height="800px" width="800px" version="1.1" id="Layer_1" xmlns="http://www.w3.org/2000/svg" xmlns:xlink="http://www.w3.org/1999/xlink" 
	 viewBox="0 0 501.616 501.616" xml:space="preserve">
<g>
	<g>
		<path d="M348.948,308.863c-1.067-7.466-6.4-13.867-13.867-17.067l-92.8-34.133l-24.533-94.933c-2.133-7.467-8.533-12.8-16-14.933
			c-7.467-2.133-14.933,1.067-20.267,7.467l-60.8,77.867l-99.2-6.4c-7.467,0-14.933,4.267-19.2,10.667c-3.2,7.467-3.2,16,1.067,22.4
			l55.467,82.133l-36.267,91.733c-2.133,7.467-1.067,14.933,4.267,21.333c5.333,6.4,13.867,8.533,21.333,6.4l94.933-26.667
			l76.8,62.933c7.467,5.333,33.067,8.533,33.067-17.067l3.2-98.133l83.2-53.333C345.748,324.863,350.014,316.33,348.948,308.863z
			 M225.214,353.663c-5.333,4.267-9.6,10.667-9.6,17.067l-2.133,67.2l-52.267-42.667c-3.2-2.133-8.533-4.267-12.8-4.267
			c-2.133,0-4.267,0-6.4,1.067l-65.067,18.133l24.533-62.933c2.133-6.4,2.133-13.867-2.133-19.2l-37.333-55.467l67.2,4.267
			c7.467,1.067,13.867-2.133,18.133-7.467l41.6-53.333l17.067,65.067c1.067,6.4,6.4,11.733,12.8,13.867l62.933,22.4L225.214,353.663
			z"/>
	</g>
</g>
<g>
	<g>
		<path d="M488.681,139.263c-36.267-13.867-72.533-24.533-109.867-33.067c19.2-25.6,44.8-46.933,72.533-61.867
			c8.533-4.267,12.8-13.867,11.733-22.4c-1.067-8.533-8.533-16-17.067-17.067C384.147-3.67,320.147-0.47,260.414,15.53
			c-38.4,10.667-70.4,24.533-94.933,43.733c-32,24.533-53.333,56.533-60.8,88.533c-2.133,11.733,4.267,22.4,16,24.533
			c11.733,2.133,22.4-4.267,24.533-16c5.333-24.533,20.267-48,44.8-66.133c20.267-14.933,46.933-27.733,81.067-36.267
			c36.267-9.6,73.6-13.867,109.867-13.867c-22.4,19.2-41.6,42.667-55.467,68.267c-3.2,6.4-3.2,12.8,0,19.2
			c2.133,6.4,8.533,10.667,14.933,11.733c22.4,4.267,44.8,8.533,66.133,14.933l-7.467,2.133c-35.2,9.6-77.867,20.267-108.8,51.2
			c-8.533,8.533-8.533,21.333,0,29.867c4.267,4.267,9.6,6.4,14.933,6.4c5.333,0,10.667-2.133,14.933-6.4
			c22.4-22.4,58.667-30.933,89.6-39.467l75.733-19.2c9.6-2.133,16-10.667,16-19.2C502.548,150.997,497.214,142.463,488.681,139.263z
			"/>
	</g>
</g>
</svg>